<?xml version="1.0" encoding="UTF-8" standalone="yes"?><svg xmlns="http://www.w3.org/2000/svg" xmlns:xlink="http://www.w3.org/1999/xlink" height="911pt" style="width:637px;height:911px;" version="1.1" viewBox="0 0 637 911" width="637pt"><defs/><g><rect fill="#FFFFFF" height="30.3515625" style="stroke: none; stroke-width: 1.0;" width="332.5" x="162.0" y="255.7578125"/><rect fill="#FFFFFF" height="30.3515625" style="stroke: none; stroke-width: 1.0;" width="312.5" x="172.0" y="286.109375"/><rect fill="#FFFFFF" height="60.703125" style="stroke: none; stroke-width: 1.0;" width="312.5" x="172.0" y="286.109375"/><rect fill="#FFFFFF" height="72.703125" style="stroke: none; stroke-width: 1.0;" width="332.5" x="162.0" y="280.109375"/><rect fill="#FFFFFF" height="68.5390625" style="stroke: none; stroke-width: 1.0;" width="332.5" x="162.0" y="352.8125"/><rect fill="#FFFFFF" height="30.3515625" style="stroke: none; stroke-width: 1.0;" width="464.5" x="162.0" y="499.0546875"/><rect fill="#FFFFFF" height="30.3515625" style="stroke: none; stroke-width: 1.0;" width="444.5" x="172.0" y="565.7578125"/><rect fill="#FFFFFF" height="36.3515625" style="stroke: none; stroke-width: 1.0;" width="444.5" x="172.0" y="590.109375"/><rect fill="#FFFFFF" height="52.1875" style="stroke: none; stroke-width: 1.0;" width="444.5" x="172.0" y="626.4609375"/><rect fill="#FFFFFF" height="185.59375" style="stroke: none; stroke-width: 1.0;" width="464.5" x="162.0" y="499.0546875"/><line style="stroke: #A80036; stroke-width: 1.0; stroke-dasharray: 5.0,5.0;" x1="49.0" x2="49.0" y1="78.3515625" y2="835.40625"/><line style="stroke: #A80036; stroke-width: 1.0; stroke-dasharray: 5.0,5.0;" x1="239.0" x2="239.0" y1="78.3515625" y2="835.40625"/><line style="stroke: #A80036; stroke-width: 1.0; stroke-dasharray: 5.0,5.0;" x1="415.5" x2="415.5" y1="78.3515625" y2="835.40625"/><line style="stroke: #A80036; stroke-width: 1.0; stroke-dasharray: 5.0,5.0;" x1="545.5" x2="545.5" y1="78.3515625" y2="835.40625"/><text fill="#000000" font-size="13" lengthAdjust="spacingAndGlyphs" textLength="83.0" x="5.0" y="75.0">Пользователь</text><ellipse cx="49.5" cy="10.0" fill="#FEFECE" rx="8.0" ry="8.0" style="stroke: #A80036; stroke-width: 2.0;"/><path d="M49.5,18 L49.5,45 M36.5,26 L62.5,26 M49.5,45 L36.5,60 M49.5,45 L62.5,60 " fill="#FEFECE" style="stroke: #A80036; stroke-width: 2.0;"/><text fill="#000000" font-size="13" lengthAdjust="spacingAndGlyphs" textLength="83.0" x="5.0" y="846.6484375">Пользователь</text><ellipse cx="49.5" cy="860.0" fill="#FEFECE" rx="8.0" ry="8.0" style="stroke: #A80036; stroke-width: 2.0;"/><path d="M49.5,868 L49.5,895 M36.5,876 L62.5,876 M49.5,895 L36.5,910 M49.5,895 L62.5,910 " fill="#FEFECE" style="stroke: #A80036; stroke-width: 2.0;"/><rect fill="#FEFECE" height="30.3515625" style="stroke: #A80036; stroke-width: 1.0;" width="115.0" x="182.0" y="48.0"/><text fill="#000000" font-size="13" lengthAdjust="spacingAndGlyphs" textLength="101.0" x="189.0" y="68.0">Почтовый клиент</text><rect fill="#FEFECE" height="30.3515625" style="stroke: #A80036; stroke-width: 1.0;" width="115.0" x="182.0" y="833.6484375"/><text fill="#000000" font-size="13" lengthAdjust="spacingAndGlyphs" textLength="101.0" x="189.0" y="853.6484375">Почтовый клиент</text><rect fill="#FEFECE" height="30.3515625" style="stroke: #A80036; stroke-width: 1.0;" width="118.0" x="356.5" y="48.0"/><text fill="#000000" font-size="13" lengthAdjust="spacingAndGlyphs" textLength="104.0" x="363.5" y="68.0">Почтовый сервер</text><rect fill="#FEFECE" height="30.3515625" style="stroke: #A80036; stroke-width: 1.0;" width="118.0" x="356.5" y="833.6484375"/><text fill="#000000" font-size="13" lengthAdjust="spacingAndGlyphs" textLength="104.0" x="363.5" y="853.6484375">Почтовый сервер</text><rect fill="#FEFECE" height="30.3515625" style="stroke: #A80036; stroke-width: 1.0;" width="122.0" x="484.5" y="48.0"/><text fill="#000000" font-size="13" lengthAdjust="spacingAndGlyphs" textLength="108.0" x="491.5" y="68.0">Анти-спам сервер</text><rect fill="#FEFECE" height="30.3515625" style="stroke: #A80036; stroke-width: 1.0;" width="122.0" x="484.5" y="833.6484375"/><text fill="#000000" font-size="13" lengthAdjust="spacingAndGlyphs" textLength="108.0" x="491.5" y="853.6484375">Анти-спам сервер</text><rect fill="#EEEEEE" height="3.0" style="stroke: #EEEEEE; stroke-width: 1.0;" width="636.0" x="0.0" y="109.52734375"/><line style="stroke: #000000; stroke-width: 1.0;" x1="0.0" x2="636.0" y1="109.52734375" y2="109.52734375"/><line style="stroke: #000000; stroke-width: 1.0;" x1="0.0" x2="636.0" y1="112.52734375" y2="112.52734375"/><rect fill="#EEEEEE" height="24.3515625" style="stroke: #000000; stroke-width: 2.0;" width="104.0" x="266.25" y="98.3515625"/><text fill="#000000" font-size="13" font-weight="bold" lengthAdjust="spacingAndGlyphs" textLength="86.0" x="272.25" y="115.3515625">Авторизация</text><rect fill="#EEEEEE" height="3.0" style="stroke: #EEEEEE; stroke-width: 1.0;" width="636.0" x="0.0" y="153.87890625"/><line style="stroke: #000000; stroke-width: 1.0;" x1="0.0" x2="636.0" y1="153.87890625" y2="153.87890625"/><line style="stroke: #000000; stroke-width: 1.0;" x1="0.0" x2="636.0" y1="156.87890625" y2="156.87890625"/><rect fill="#EEEEEE" height="24.3515625" style="stroke: #000000; stroke-width: 2.0;" width="205.0" x="215.75" y="142.703125"/><text fill="#000000" font-size="13" font-weight="bold" lengthAdjust="spacingAndGlyphs" textLength="187.0" x="221.75" y="159.703125">Получение входящей почты</text><line style="stroke: #A80036; stroke-width: 1.0;" x1="49.5" x2="233.5" y1="203.0546875" y2="203.0546875"/><polygon fill="#A80036" points="227.5,199.0546875,237.5,203.0546875,227.5,207.0546875" style="stroke: #A80036; stroke-width: 1.0;"/><text fill="#000000" font-size="13" lengthAdjust="spacingAndGlyphs" textLength="162.0" x="56.5" y="196.0546875">Получить входящую почту</text><line style="stroke: #A80036; stroke-width: 1.0;" x1="239.5" x2="409.5" y1="239.40625" y2="239.40625"/><polygon fill="#A80036" points="403.5,235.40625,413.5,239.40625,403.5,243.40625" style="stroke: #A80036; stroke-width: 1.0;"/><text fill="#000000" font-size="13" lengthAdjust="spacingAndGlyphs" textLength="162.0" x="246.5" y="232.40625">Получить входящую почту</text><polygon fill="#EEEEEE" points="162.0,255.7578125,223.0,255.7578125,223.0,263.7578125,213.0,273.7578125,162.0,273.7578125,162.0,255.7578125" style="stroke: #000000; stroke-width: 2.0;"/><line style="stroke: #000000; stroke-width: 2.0;" x1="162.0" x2="494.5" y1="255.7578125" y2="255.7578125"/><line style="stroke: #000000; stroke-width: 2.0;" x1="494.5" x2="494.5" y1="255.7578125" y2="280.109375"/><line style="stroke: #000000; stroke-width: 2.0;" x1="162.0" x2="162.0" y1="273.7578125" y2="280.109375"/><text fill="#000000" font-size="13" font-weight="bold" lengthAdjust="spacingAndGlyphs" textLength="16.0" x="177.0" y="269.7578125">alt</text><text fill="#000000" font-size="11" font-weight="bold" lengthAdjust="spacingAndGlyphs" textLength="36.0" x="238.0" y="268.7578125">[POP3]</text><polygon fill="#EEEEEE" points="172.0,286.109375,245.0,286.109375,245.0,294.109375,235.0,304.109375,172.0,304.109375,172.0,286.109375" style="stroke: #000000; stroke-width: 2.0;"/><line style="stroke: #000000; stroke-width: 2.0;" x1="172.0" x2="484.5" y1="286.109375" y2="286.109375"/><line style="stroke: #000000; stroke-width: 2.0;" x1="484.5" x2="484.5" y1="286.109375" y2="310.4609375"/><line style="stroke: #000000; stroke-width: 2.0;" x1="172.0" x2="172.0" y1="304.109375" y2="310.4609375"/><text fill="#000000" font-size="13" font-weight="bold" lengthAdjust="spacingAndGlyphs" textLength="28.0" x="187.0" y="300.109375">loop</text><text fill="#000000" font-size="11" font-weight="bold" lengthAdjust="spacingAndGlyphs" textLength="134.0" x="260.0" y="299.109375">[все новые сообщения]</text><line style="stroke: #A80036; stroke-width: 1.0; stroke-dasharray: 2.0,2.0;" x1="244.5" x2="414.5" y1="336.4609375" y2="336.4609375"/><polygon fill="#A80036" points="251.5,332.4609375,241.5,336.4609375,251.5,340.4609375" style="stroke: #A80036; stroke-width: 1.0;"/><text fill="#000000" font-size="13" lengthAdjust="spacingAndGlyphs" textLength="70.0" x="246.5" y="329.4609375">Сообщение</text><line style="stroke: #000000; stroke-width: 2.0;" x1="172.0" x2="172.0" y1="286.109375" y2="346.8125"/><line style="stroke: #000000; stroke-width: 2.0;" x1="484.5" x2="484.5" y1="286.109375" y2="346.8125"/><line style="stroke: #000000; stroke-width: 2.0;" x1="172.0" x2="484.5" y1="346.8125" y2="346.8125"/><line style="stroke: #000000; stroke-width: 1.0; stroke-dasharray: 2.0,2.0;" x1="162.0" x2="494.5" y1="353.8125" y2="353.8125"/><text fill="#000000" font-size="11" font-weight="bold" lengthAdjust="spacingAndGlyphs" textLength="36.0" x="167.0" y="364.8125">[IMAP]</text><line style="stroke: #000000; stroke-width: 2.0;" x1="162.0" x2="162.0" y1="280.109375" y2="352.8125"/><line style="stroke: #000000; stroke-width: 2.0;" x1="494.5" x2="494.5" y1="280.109375" y2="352.8125"/><line style="stroke: #A80036; stroke-width: 1.0;" x1="244.5" x2="414.5" y1="410.6484375" y2="410.6484375"/><polygon fill="#A80036" points="251.5,406.6484375,241.5,410.6484375,251.5,414.6484375" style="stroke: #A80036; stroke-width: 1.0;"/><text fill="#000000" font-size="13" lengthAdjust="spacingAndGlyphs" textLength="83.0" x="246.5" y="387.6484375">Установление</text><text fill="#000000" font-size="13" lengthAdjust="spacingAndGlyphs" textLength="144.0" x="246.5" y="404.0">удаленного соединения</text><line style="stroke: #000000; stroke-width: 2.0;" x1="162.0" x2="162.0" y1="352.8125" y2="421.3515625"/><line style="stroke: #000000; stroke-width: 2.0;" x1="494.5" x2="494.5" y1="352.8125" y2="421.3515625"/><line style="stroke: #000000; stroke-width: 2.0;" x1="162.0" x2="494.5" y1="421.3515625" y2="421.3515625"/><line style="stroke: #A80036; stroke-width: 1.0;" x1="239.5" x2="281.5" y1="470.0546875" y2="470.0546875"/><line style="stroke: #A80036; stroke-width: 1.0;" x1="281.5" x2="281.5" y1="470.0546875" y2="483.0546875"/><line style="stroke: #A80036; stroke-width: 1.0;" x1="239.5" x2="281.5" y1="483.0546875" y2="483.0546875"/><polygon fill="#A80036" points="249.5,479.0546875,239.5,483.0546875,249.5,487.0546875" style="stroke: #A80036; stroke-width: 1.0;"/><text fill="#000000" font-size="13" lengthAdjust="spacingAndGlyphs" textLength="160.0" x="246.5" y="446.3515625">Формирование заявок для</text><text fill="#000000" font-size="13" lengthAdjust="spacingAndGlyphs" textLength="134.0" x="246.5" y="462.703125">входящих сообщений</text><polygon fill="#EEEEEE" points="162.0,499.0546875,235.0,499.0546875,235.0,507.0546875,225.0,517.0546875,162.0,517.0546875,162.0,499.0546875" style="stroke: #000000; stroke-width: 2.0;"/><line style="stroke: #000000; stroke-width: 2.0;" x1="162.0" x2="626.5" y1="499.0546875" y2="499.0546875"/><line style="stroke: #000000; stroke-width: 2.0;" x1="626.5" x2="626.5" y1="499.0546875" y2="523.40625"/><line style="stroke: #000000; stroke-width: 2.0;" x1="162.0" x2="162.0" y1="517.0546875" y2="523.40625"/><text fill="#000000" font-size="13" font-weight="bold" lengthAdjust="spacingAndGlyphs" textLength="28.0" x="177.0" y="513.0546875">loop</text><text fill="#000000" font-size="11" font-weight="bold" lengthAdjust="spacingAndGlyphs" textLength="94.0" x="250.0" y="512.0546875">[все сообщения]</text><line style="stroke: #A80036; stroke-width: 1.0;" x1="239.5" x2="539.5" y1="549.40625" y2="549.40625"/><polygon fill="#A80036" points="533.5,545.40625,543.5,549.40625,533.5,553.40625" style="stroke: #A80036; stroke-width: 1.0;"/><text fill="#000000" font-size="13" lengthAdjust="spacingAndGlyphs" textLength="185.0" x="246.5" y="542.40625">Классифицировать сообщение</text><polygon fill="#EEEEEE" points="172.0,565.7578125,233.0,565.7578125,233.0,573.7578125,223.0,583.7578125,172.0,583.7578125,172.0,565.7578125" style="stroke: #000000; stroke-width: 2.0;"/><line style="stroke: #000000; stroke-width: 2.0;" x1="172.0" x2="616.5" y1="565.7578125" y2="565.7578125"/><line style="stroke: #000000; stroke-width: 2.0;" x1="616.5" x2="616.5" y1="565.7578125" y2="590.109375"/><line style="stroke: #000000; stroke-width: 2.0;" x1="172.0" x2="172.0" y1="583.7578125" y2="590.109375"/><text fill="#000000" font-size="13" font-weight="bold" lengthAdjust="spacingAndGlyphs" textLength="16.0" x="187.0" y="579.7578125">alt</text><text fill="#000000" font-size="11" font-weight="bold" lengthAdjust="spacingAndGlyphs" textLength="101.0" x="248.0" y="578.7578125">[обнаружен спам]</text><line style="stroke: #A80036; stroke-width: 1.0; stroke-dasharray: 2.0,2.0;" x1="244.5" x2="544.5" y1="616.109375" y2="616.109375"/><polygon fill="#A80036" points="251.5,612.109375,241.5,616.109375,251.5,620.109375" style="stroke: #A80036; stroke-width: 1.0;"/><text fill="#000000" font-size="13" lengthAdjust="spacingAndGlyphs" textLength="165.0" x="246.5" y="609.109375">сообщение с меткой спама</text><line style="stroke: #000000; stroke-width: 1.0; stroke-dasharray: 2.0,2.0;" x1="172.0" x2="616.5" y1="627.4609375" y2="627.4609375"/><text fill="#000000" font-size="11" font-weight="bold" lengthAdjust="spacingAndGlyphs" textLength="118.0" x="177.0" y="638.4609375">[спам не обнаружен]</text><line style="stroke: #000000; stroke-width: 2.0;" x1="172.0" x2="172.0" y1="590.109375" y2="626.4609375"/><line style="stroke: #000000; stroke-width: 2.0;" x1="616.5" x2="616.5" y1="590.109375" y2="626.4609375"/><line style="stroke: #A80036; stroke-width: 1.0; stroke-dasharray: 2.0,2.0;" x1="244.5" x2="544.5" y1="668.296875" y2="668.296875"/><polygon fill="#A80036" points="251.5,664.296875,241.5,668.296875,251.5,672.296875" style="stroke: #A80036; stroke-width: 1.0;"/><text fill="#000000" font-size="13" lengthAdjust="spacingAndGlyphs" textLength="179.0" x="246.5" y="661.296875">сообщение с обычной меткой</text><line style="stroke: #000000; stroke-width: 2.0;" x1="172.0" x2="172.0" y1="626.4609375" y2="678.6484375"/><line style="stroke: #000000; stroke-width: 2.0;" x1="616.5" x2="616.5" y1="626.4609375" y2="678.6484375"/><line style="stroke: #000000; stroke-width: 2.0;" x1="172.0" x2="616.5" y1="678.6484375" y2="678.6484375"/><line style="stroke: #000000; stroke-width: 2.0;" x1="162.0" x2="162.0" y1="499.0546875" y2="684.6484375"/><line style="stroke: #000000; stroke-width: 2.0;" x1="626.5" x2="626.5" y1="499.0546875" y2="684.6484375"/><line style="stroke: #000000; stroke-width: 2.0;" x1="162.0" x2="626.5" y1="684.6484375" y2="684.6484375"/><line style="stroke: #A80036; stroke-width: 1.0;" x1="239.5" x2="281.5" y1="749.703125" y2="749.703125"/><line style="stroke: #A80036; stroke-width: 1.0;" x1="281.5" x2="281.5" y1="749.703125" y2="762.703125"/><line style="stroke: #A80036; stroke-width: 1.0;" x1="239.5" x2="281.5" y1="762.703125" y2="762.703125"/><polygon fill="#A80036" points="249.5,758.703125,239.5,762.703125,249.5,766.703125" style="stroke: #A80036; stroke-width: 1.0;"/><text fill="#000000" font-size="13" lengthAdjust="spacingAndGlyphs" textLength="139.0" x="246.5" y="709.6484375">Подготовка списка для</text><text fill="#000000" font-size="13" lengthAdjust="spacingAndGlyphs" textLength="134.0" x="246.5" y="726.0">входящих сообщений</text><text fill="#000000" font-size="13" lengthAdjust="spacingAndGlyphs" textLength="103.0" x="246.5" y="742.3515625">для отображения</text><line style="stroke: #A80036; stroke-width: 1.0;" x1="54.5" x2="238.5" y1="814.703125" y2="814.703125"/><polygon fill="#A80036" points="61.5,810.703125,51.5,814.703125,61.5,818.703125" style="stroke: #A80036; stroke-width: 1.0;"/><text fill="#000000" font-size="13" lengthAdjust="spacingAndGlyphs" textLength="176.0" x="56.5" y="791.703125">Список классифицированных</text><text fill="#000000" font-size="13" lengthAdjust="spacingAndGlyphs" textLength="68.0" x="56.5" y="808.0546875">сообщений</text></g></svg>