<?xml version="1.0" encoding="UTF-8" standalone="yes"?><svg xmlns="http://www.w3.org/2000/svg" xmlns:xlink="http://www.w3.org/1999/xlink" height="582pt" style="width:424px;height:582px;" version="1.1" viewBox="0 0 424 582" width="424pt"><defs/><g><rect fill="#FFFFFF" height="276.1328125" style="stroke: #A80036; stroke-width: 1.0;" width="10.0" x="211.5" y="203.0546875"/><rect fill="#FFFFFF" height="36.3515625" style="stroke: #A80036; stroke-width: 1.0;" width="10.0" x="354.5" y="239.40625"/><rect fill="#FFFFFF" height="30.3515625" style="stroke: none; stroke-width: 1.0;" width="274.0" x="10.0" y="292.109375"/><rect fill="#FFFFFF" height="36.3515625" style="stroke: none; stroke-width: 1.0;" width="274.0" x="10.0" y="316.4609375"/><rect fill="#FFFFFF" height="68.5390625" style="stroke: none; stroke-width: 1.0;" width="274.0" x="10.0" y="352.8125"/><rect fill="#FFFFFF" height="68.5390625" style="stroke: none; stroke-width: 1.0;" width="274.0" x="10.0" y="421.3515625"/><line style="stroke: #A80036; stroke-width: 1.0; stroke-dasharray: 5.0,5.0;" x1="64.0" x2="64.0" y1="78.3515625" y2="505.890625"/><line style="stroke: #A80036; stroke-width: 1.0; stroke-dasharray: 5.0,5.0;" x1="216.0" x2="216.0" y1="78.3515625" y2="505.890625"/><line style="stroke: #A80036; stroke-width: 1.0; stroke-dasharray: 5.0,5.0;" x1="359.5" x2="359.5" y1="78.3515625" y2="505.890625"/><text fill="#000000" font-size="13" lengthAdjust="spacingAndGlyphs" textLength="83.0" x="20.0" y="75.0">Пользователь</text><ellipse cx="64.5" cy="10.0" fill="#FEFECE" rx="8.0" ry="8.0" style="stroke: #A80036; stroke-width: 2.0;"/><path d="M64.5,18 L64.5,45 M51.5,26 L77.5,26 M64.5,45 L51.5,60 M64.5,45 L77.5,60 " fill="#FEFECE" style="stroke: #A80036; stroke-width: 2.0;"/><text fill="#000000" font-size="13" lengthAdjust="spacingAndGlyphs" textLength="83.0" x="20.0" y="517.6484375">Пользователь</text><ellipse cx="64.5" cy="531.0" fill="#FEFECE" rx="8.0" ry="8.0" style="stroke: #A80036; stroke-width: 2.0;"/><path d="M64.5,539 L64.5,566 M51.5,547 L77.5,547 M64.5,566 L51.5,581 M64.5,566 L77.5,581 " fill="#FEFECE" style="stroke: #A80036; stroke-width: 2.0;"/><rect fill="#FEFECE" height="30.3515625" style="stroke: #A80036; stroke-width: 1.0;" width="115.0" x="159.0" y="48.0"/><text fill="#000000" font-size="13" lengthAdjust="spacingAndGlyphs" textLength="101.0" x="166.0" y="68.0">Почтовый клиент</text><rect fill="#FEFECE" height="30.3515625" style="stroke: #A80036; stroke-width: 1.0;" width="115.0" x="159.0" y="504.6484375"/><text fill="#000000" font-size="13" lengthAdjust="spacingAndGlyphs" textLength="101.0" x="166.0" y="524.6484375">Почтовый клиент</text><rect fill="#FEFECE" height="30.3515625" style="stroke: #A80036; stroke-width: 1.0;" width="118.0" x="300.5" y="48.0"/><text fill="#000000" font-size="13" lengthAdjust="spacingAndGlyphs" textLength="104.0" x="307.5" y="68.0">Почтовый сервер</text><rect fill="#FEFECE" height="30.3515625" style="stroke: #A80036; stroke-width: 1.0;" width="118.0" x="300.5" y="504.6484375"/><text fill="#000000" font-size="13" lengthAdjust="spacingAndGlyphs" textLength="104.0" x="307.5" y="524.6484375">Почтовый сервер</text><rect fill="#FFFFFF" height="276.1328125" style="stroke: #A80036; stroke-width: 1.0;" width="10.0" x="211.5" y="203.0546875"/><rect fill="#FFFFFF" height="36.3515625" style="stroke: #A80036; stroke-width: 1.0;" width="10.0" x="354.5" y="239.40625"/><rect fill="#EEEEEE" height="3.0" style="stroke: #EEEEEE; stroke-width: 1.0;" width="423.0" x="0.0" y="109.52734375"/><line style="stroke: #000000; stroke-width: 1.0;" x1="0.0" x2="423.0" y1="109.52734375" y2="109.52734375"/><line style="stroke: #000000; stroke-width: 1.0;" x1="0.0" x2="423.0" y1="112.52734375" y2="112.52734375"/><rect fill="#EEEEEE" height="24.3515625" style="stroke: #000000; stroke-width: 2.0;" width="104.0" x="159.75" y="98.3515625"/><text fill="#000000" font-size="13" font-weight="bold" lengthAdjust="spacingAndGlyphs" textLength="86.0" x="165.75" y="115.3515625">Авторизация</text><rect fill="#EEEEEE" height="3.0" style="stroke: #EEEEEE; stroke-width: 1.0;" width="423.0" x="0.0" y="153.87890625"/><line style="stroke: #000000; stroke-width: 1.0;" x1="0.0" x2="423.0" y1="153.87890625" y2="153.87890625"/><line style="stroke: #000000; stroke-width: 1.0;" x1="0.0" x2="423.0" y1="156.87890625" y2="156.87890625"/><rect fill="#EEEEEE" height="24.3515625" style="stroke: #000000; stroke-width: 2.0;" width="205.0" x="109.25" y="142.703125"/><text fill="#000000" font-size="13" font-weight="bold" lengthAdjust="spacingAndGlyphs" textLength="187.0" x="115.25" y="159.703125">Получение входящей почты</text><line style="stroke: #A80036; stroke-width: 1.0;" x1="64.5" x2="205.5" y1="203.0546875" y2="203.0546875"/><polygon fill="#A80036" points="199.5,199.0546875,209.5,203.0546875,199.5,207.0546875" style="stroke: #A80036; stroke-width: 1.0;"/><text fill="#000000" font-size="13" lengthAdjust="spacingAndGlyphs" textLength="93.0" x="71.5" y="196.0546875">Получить почту</text><line style="stroke: #A80036; stroke-width: 1.0;" x1="221.5" x2="348.5" y1="239.40625" y2="239.40625"/><polygon fill="#A80036" points="342.5,235.40625,352.5,239.40625,342.5,243.40625" style="stroke: #A80036; stroke-width: 1.0;"/><text fill="#000000" font-size="13" lengthAdjust="spacingAndGlyphs" textLength="106.0" x="228.5" y="232.40625">Проверка данных</text><line style="stroke: #A80036; stroke-width: 1.0; stroke-dasharray: 2.0,2.0;" x1="226.5" x2="358.5" y1="275.7578125" y2="275.7578125"/><polygon fill="#A80036" points="233.5,271.7578125,223.5,275.7578125,233.5,279.7578125" style="stroke: #A80036; stroke-width: 1.0;"/><text fill="#000000" font-size="13" lengthAdjust="spacingAndGlyphs" textLength="119.0" x="228.5" y="268.7578125">Результат проверки</text><polygon fill="#EEEEEE" points="10.0,292.109375,71.0,292.109375,71.0,300.109375,61.0,310.109375,10.0,310.109375,10.0,292.109375" style="stroke: #000000; stroke-width: 2.0;"/><line style="stroke: #000000; stroke-width: 2.0;" x1="10.0" x2="284.0" y1="292.109375" y2="292.109375"/><line style="stroke: #000000; stroke-width: 2.0;" x1="284.0" x2="284.0" y1="292.109375" y2="316.4609375"/><line style="stroke: #000000; stroke-width: 2.0;" x1="10.0" x2="10.0" y1="310.109375" y2="316.4609375"/><text fill="#000000" font-size="13" font-weight="bold" lengthAdjust="spacingAndGlyphs" textLength="16.0" x="25.0" y="306.109375">alt</text><text fill="#000000" font-size="11" font-weight="bold" lengthAdjust="spacingAndGlyphs" textLength="40.0" x="86.0" y="305.109375">[успех]</text><line style="stroke: #A80036; stroke-width: 1.0;" x1="69.5" x2="210.5" y1="342.4609375" y2="342.4609375"/><polygon fill="#A80036" points="76.5,338.4609375,66.5,342.4609375,76.5,346.4609375" style="stroke: #A80036; stroke-width: 1.0;"/><text fill="#000000" font-size="13" lengthAdjust="spacingAndGlyphs" textLength="133.0" x="71.5" y="335.4609375">Авторизация успешна</text><line style="stroke: #000000; stroke-width: 1.0; stroke-dasharray: 2.0,2.0;" x1="10.0" x2="284.0" y1="353.8125" y2="353.8125"/><text fill="#000000" font-size="11" font-weight="bold" lengthAdjust="spacingAndGlyphs" textLength="177.0" x="15.0" y="364.8125">[почтовый сервер не отвечает]</text><line style="stroke: #000000; stroke-width: 2.0;" x1="10.0" x2="10.0" y1="316.4609375" y2="352.8125"/><line style="stroke: #000000; stroke-width: 2.0;" x1="284.0" x2="284.0" y1="316.4609375" y2="352.8125"/><line style="stroke: #A80036; stroke-width: 1.0;" x1="69.5" x2="210.5" y1="410.6484375" y2="410.6484375"/><polygon fill="#A80036" points="76.5,406.6484375,66.5,410.6484375,76.5,414.6484375" style="stroke: #A80036; stroke-width: 1.0;"/><text fill="#000000" font-size="13" lengthAdjust="spacingAndGlyphs" textLength="76.0" x="71.5" y="387.6484375">Авторизация</text><text fill="#000000" font-size="13" lengthAdjust="spacingAndGlyphs" textLength="73.0" x="71.5" y="404.0">невозможна</text><line style="stroke: #000000; stroke-width: 1.0; stroke-dasharray: 2.0,2.0;" x1="10.0" x2="284.0" y1="422.3515625" y2="422.3515625"/><text fill="#000000" font-size="11" font-weight="bold" lengthAdjust="spacingAndGlyphs" textLength="169.0" x="15.0" y="433.3515625">[неверный логин или пароль]</text><line style="stroke: #000000; stroke-width: 2.0;" x1="10.0" x2="10.0" y1="352.8125" y2="421.3515625"/><line style="stroke: #000000; stroke-width: 2.0;" x1="284.0" x2="284.0" y1="352.8125" y2="421.3515625"/><line style="stroke: #A80036; stroke-width: 1.0;" x1="69.5" x2="215.5" y1="479.1875" y2="479.1875"/><polygon fill="#A80036" points="76.5,475.1875,66.5,479.1875,76.5,483.1875" style="stroke: #A80036; stroke-width: 1.0;"/><text fill="#000000" font-size="13" lengthAdjust="spacingAndGlyphs" textLength="128.0" x="71.5" y="456.1875">Запрос на повторный</text><text fill="#000000" font-size="13" lengthAdjust="spacingAndGlyphs" textLength="130.0" x="71.5" y="472.5390625">ввод логина и пароля</text><line style="stroke: #000000; stroke-width: 2.0;" x1="10.0" x2="10.0" y1="421.3515625" y2="489.890625"/><line style="stroke: #000000; stroke-width: 2.0;" x1="284.0" x2="284.0" y1="421.3515625" y2="489.890625"/><line style="stroke: #000000; stroke-width: 2.0;" x1="10.0" x2="284.0" y1="489.890625" y2="489.890625"/></g></svg>