<?xml version="1.0" encoding="UTF-8" standalone="yes"?><svg xmlns="http://www.w3.org/2000/svg" xmlns:xlink="http://www.w3.org/1999/xlink" height="654pt" style="width:747px;height:654px;" version="1.1" viewBox="0 0 747 654" width="747pt"><defs><filter height="300%" id="f1" width="300%" x="-1" y="-1"><feGaussianBlur result="blurOut" stdDeviation="2"/><feColorMatrix in="blurOut" result="blurOut2" type="matrix" values="0 0 0 0 0 0 0 0 0 0 0 0 0 0 0 0 0 0 .4 0"/><feOffset dx="4" dy="4" in="blurOut2" result="blurOut3"/><feBlend in="SourceGraphic" in2="blurOut3" mode="normal"/></filter></defs><g><rect fill="#FFFFFF" filter="url(#f1)" height="623.0" style="stroke: #000000; stroke-width: 2.0;" width="582.0" x="158.0" y="24.0"/><text fill="#000000" font-size="14" font-weight="bold" lengthAdjust="spacingAndGlyphs" textLength="285.0" x="304.5" y="43.0">Система типа &lt;&lt;Б&gt;&gt; (Почтовый сервер)</text><ellipse cx="283.5" cy="116.8046875" fill="#FEFECE" filter="url(#f1)" rx="108.5" ry="18.8046875" style="stroke: #A80036; stroke-width: 1.5;"/><text fill="#000000" font-size="14" lengthAdjust="spacingAndGlyphs" textLength="197.0" x="185.0" y="122.0">аутенфикация и авторизация</text><ellipse cx="283.5" cy="198.109375" fill="#FEFECE" filter="url(#f1)" rx="67.5" ry="27.609375" style="stroke: #A80036; stroke-width: 1.5;"/><text fill="#000000" font-size="14" lengthAdjust="spacingAndGlyphs" textLength="112.0" x="227.5" y="194.5">просмотр списка</text><text fill="#000000" font-size="14" lengthAdjust="spacingAndGlyphs" textLength="115.0" x="226.0" y="212.109375">спам-адресантов</text><ellipse cx="617.0" cy="157.8046875" fill="#FEFECE" filter="url(#f1)" rx="94.0" ry="18.8046875" style="stroke: #A80036; stroke-width: 1.5;"/><text fill="#000000" font-size="14" lengthAdjust="spacingAndGlyphs" textLength="168.0" x="533.0" y="163.0">просмотр черного списка</text><ellipse cx="617.0" cy="84.8046875" fill="#FEFECE" filter="url(#f1)" rx="90.0" ry="18.8046875" style="stroke: #A80036; stroke-width: 1.5;"/><text fill="#000000" font-size="14" lengthAdjust="spacingAndGlyphs" textLength="160.0" x="537.0" y="90.0">просмотр серого списка</text><ellipse cx="283.0" cy="299.109375" fill="#FEFECE" filter="url(#f1)" rx="70.0" ry="27.609375" style="stroke: #A80036; stroke-width: 1.5;"/><text fill="#000000" font-size="14" lengthAdjust="spacingAndGlyphs" textLength="120.0" x="223.0" y="295.5">изменение списка</text><text fill="#000000" font-size="14" lengthAdjust="spacingAndGlyphs" textLength="115.0" x="225.5" y="313.109375">спам-адресантов</text><ellipse cx="617.5" cy="303.8046875" fill="#FEFECE" filter="url(#f1)" rx="86.5" ry="18.8046875" style="stroke: #A80036; stroke-width: 1.5;"/><text fill="#000000" font-size="14" lengthAdjust="spacingAndGlyphs" textLength="153.0" x="541.0" y="309.0">добавление адресанта</text><ellipse cx="617.5" cy="230.8046875" fill="#FEFECE" filter="url(#f1)" rx="78.5" ry="18.8046875" style="stroke: #A80036; stroke-width: 1.5;"/><text fill="#000000" font-size="14" lengthAdjust="spacingAndGlyphs" textLength="137.0" x="549.0" y="236.0">удаление адресанта</text><ellipse cx="283.0" cy="379.8046875" fill="#FEFECE" filter="url(#f1)" rx="100.0" ry="18.8046875" style="stroke: #A80036; stroke-width: 1.5;"/><text fill="#000000" font-size="14" lengthAdjust="spacingAndGlyphs" textLength="180.0" x="193.0" y="385.0">отправка почты адресатам</text><ellipse cx="617.0" cy="449.8046875" fill="#FEFECE" filter="url(#f1)" rx="104.0" ry="18.8046875" style="stroke: #A80036; stroke-width: 1.5;"/><text fill="#000000" font-size="14" lengthAdjust="spacingAndGlyphs" textLength="188.0" x="523.0" y="455.0">отправка по протоколу IMAP</text><ellipse cx="617.5" cy="376.8046875" fill="#FEFECE" filter="url(#f1)" rx="106.5" ry="18.8046875" style="stroke: #A80036; stroke-width: 1.5;"/><text fill="#000000" font-size="14" lengthAdjust="spacingAndGlyphs" textLength="193.0" x="521.0" y="382.0">отправка по протоколу POP3</text><ellipse cx="283.0" cy="476.8046875" fill="#FEFECE" filter="url(#f1)" rx="94.0" ry="18.8046875" style="stroke: #A80036; stroke-width: 1.5;"/><text fill="#000000" font-size="14" lengthAdjust="spacingAndGlyphs" textLength="168.0" x="199.0" y="482.0">создание спам-фильтров</text><ellipse cx="617.0" cy="611.8046875" fill="#FEFECE" filter="url(#f1)" rx="66.0" ry="18.8046875" style="stroke: #A80036; stroke-width: 1.5;"/><text fill="#000000" font-size="14" lengthAdjust="spacingAndGlyphs" textLength="112.0" x="561.0" y="617.0">создание правил</text><ellipse cx="617.5" cy="531.109375" fill="#FEFECE" filter="url(#f1)" rx="65.5" ry="27.609375" style="stroke: #A80036; stroke-width: 1.5;"/><text fill="#000000" font-size="14" lengthAdjust="spacingAndGlyphs" textLength="100.0" x="567.5" y="527.5">импорт правил</text><text fill="#000000" font-size="14" lengthAdjust="spacingAndGlyphs" textLength="111.0" x="562.0" y="545.109375">из других систем</text><ellipse cx="283.5" cy="549.8046875" fill="#FEFECE" filter="url(#f1)" rx="98.5" ry="18.8046875" style="stroke: #A80036; stroke-width: 1.5;"/><text fill="#000000" font-size="14" lengthAdjust="spacingAndGlyphs" textLength="177.0" x="195.0" y="555.0">просмотр журнала работы</text><ellipse cx="58.0" cy="310.0" fill="#FEFECE" filter="url(#f1)" rx="8.0" ry="8.0" style="stroke: #A80036; stroke-width: 2.0;"/><path d="M58,318 L58,345 M45,326 L71,326 M58,345 L45,360 M58,345 L71,360 " fill="#FEFECE" filter="url(#f1)" style="stroke: #A80036; stroke-width: 2.0;"/><text fill="#000000" font-size="14" lengthAdjust="spacingAndGlyphs" textLength="104.0" x="6.0" y="376.0">Администратор</text><path d="M67.2499,299.911 C79.1707,257.262 104.0572,190.838 150,153 C163.572,141.822 180.314,134.096 197.287,128.76 " fill="none" style="stroke: #A80036; stroke-width: 1.0;"/><path d="M95.824,299.57 C111.564,284.272 130.661,267.543 150,255 C175.186,238.664 205.84,225.159 231.368,215.402 " fill="none" style="stroke: #A80036; stroke-width: 1.0;"/><path d="M367.888,187.834 C419.463,181.657 484.948,173.815 535.832,167.721 " fill="none" style="stroke: #A80036; stroke-width: 1.0;"/><polygon fill="none" points="368.485,194.812,347.795,190.24,366.82,180.91199999999998,368.485,194.812" style="stroke: #A80036; stroke-width: 1.0;"/><text fill="#000000" font-size="13" lengthAdjust="spacingAndGlyphs" textLength="55.0" x="423.0" y="171.0">&lt;extend&gt;</text><path d="M353.143,173.614 C375.167,166.001 399.582,157.607 422,150 C471.845,133.087 528.986,114.085 568.469,101.016 " fill="none" style="stroke: #A80036; stroke-width: 1.0;"/><polygon fill="none" points="355.306,180.272,334.116,180.20100000000002,350.726,167.043,355.306,180.272" style="stroke: #A80036; stroke-width: 1.0;"/><text fill="#000000" font-size="13" lengthAdjust="spacingAndGlyphs" textLength="55.0" x="423.0" y="128.0">&lt;extend&gt;</text><path d="M110.185,330.491 C142.77,324.553 184.939,316.869 219.464,310.578 " fill="none" style="stroke: #A80036; stroke-width: 1.0;"/><path d="M353.017,300.048 C401.538,300.775 466.774,301.751 520.254,302.552 " fill="none" style="stroke: #A80036; stroke-width: 1.0; stroke-dasharray: 7.0,7.0;"/><polygon fill="#A80036" points="530.44,302.704,520.509,298.055,525.441,302.629,520.441,302.554,520.441,302.554,520.441,302.554,525.441,302.629,520.374,307.054,530.44,302.704,530.44,302.704" style="stroke: #A80036; stroke-width: 1.0;"/><text fill="#000000" font-size="13" lengthAdjust="spacingAndGlyphs" textLength="55.0" x="423.0" y="297.0">&lt;extend&gt;</text><path d="M345.04,286.369 C402.197,274.732 486.939,257.48 546.605,245.332 " fill="none" style="stroke: #A80036; stroke-width: 1.0; stroke-dasharray: 7.0,7.0;"/><polygon fill="#A80036" points="556.699,243.277,546.002,240.86200000000002,551.799,244.274,546.9,245.272,546.9,245.272,546.9,245.272,551.799,244.274,547.798,249.68200000000002,556.699,243.277,556.699,243.277" style="stroke: #A80036; stroke-width: 1.0;"/><text fill="#000000" font-size="13" lengthAdjust="spacingAndGlyphs" textLength="55.0" x="423.0" y="254.0">&lt;extend&gt;</text><path d="M110.185,349.277 C139.784,354.539 177.291,361.207 209.793,366.986 " fill="none" style="stroke: #A80036; stroke-width: 1.0;"/><path d="M350.188,394.081 C404.549,405.474 481.197,421.538 538.402,433.527 " fill="none" style="stroke: #A80036; stroke-width: 1.0; stroke-dasharray: 7.0,7.0;"/><polygon fill="#A80036" points="548.486,435.64099999999996,539.622,429.185,543.593,434.615,538.699,433.59000000000003,538.699,433.59000000000003,538.699,433.59000000000003,543.593,434.615,537.776,437.994,548.486,435.64099999999996,548.486,435.64099999999996" style="stroke: #A80036; stroke-width: 1.0;"/><text fill="#000000" font-size="13" lengthAdjust="spacingAndGlyphs" textLength="55.0" x="423.0" y="406.0">&lt;extend&gt;</text><path d="M383.211,379.1 C420.076,378.769 462.141,378.391 500.331,378.048 " fill="none" style="stroke: #A80036; stroke-width: 1.0; stroke-dasharray: 7.0,7.0;"/><polygon fill="#A80036" points="510.47,377.957,500.43,373.547,505.47,378.002,500.471,378.047,500.471,378.047,500.471,378.047,505.47,378.002,500.511,382.547,510.47,377.957,510.47,377.957" style="stroke: #A80036; stroke-width: 1.0;"/><text fill="#000000" font-size="13" lengthAdjust="spacingAndGlyphs" textLength="55.0" x="423.0" y="374.0">&lt;extend&gt;</text><path d="M101.042,380.183 C115.891,392.888 133.063,406.373 150,417 C177.787,434.434 211.496,449.584 238.024,460.298 " fill="none" style="stroke: #A80036; stroke-width: 1.0;"/><path d="M338.967,492.369 C356.419,498.11 375.426,505.372 392,514 C406.666,521.635 407.731,527.646 422,536 C459.075,557.707 470.033,560.241 510,576 C526.842,582.6411 545.461,589.1766 562.382,594.8182 " fill="none" style="stroke: #A80036; stroke-width: 1.0; stroke-dasharray: 7.0,7.0;"/><polygon fill="#A80036" points="572.122,598.0305,564.035,590.6247,567.373,596.4644,562.625,594.8983000000001,562.625,594.8983000000001,562.625,594.8983000000001,567.373,596.4644,561.216,599.1719,572.122,598.0305,572.122,598.0305" style="stroke: #A80036; stroke-width: 1.0;"/><text fill="#000000" font-size="13" lengthAdjust="spacingAndGlyphs" textLength="57.0" x="422.0" y="532.0">&lt;include&gt;</text><path d="M350.77,490.271 C373.387,494.541 398.747,499.158 422,503 C462.406,509.677 507.675,516.233 544.418,521.322 " fill="none" style="stroke: #A80036; stroke-width: 1.0; stroke-dasharray: 7.0,7.0;"/><polygon fill="#A80036" points="554.545,522.717,545.252,516.894,549.591,522.034,544.638,521.352,544.638,521.352,544.638,521.352,549.591,522.034,544.024,525.81,554.545,522.717,554.545,522.717" style="stroke: #A80036; stroke-width: 1.0;"/><text fill="#000000" font-size="13" lengthAdjust="spacingAndGlyphs" textLength="57.0" x="422.0" y="499.0">&lt;include&gt;</text><path d="M68.9722,380.28 C81.876,420.055 107.161,479.754 150,514 C164.854,525.875 183.309,533.846 201.696,539.193 " fill="none" style="stroke: #A80036; stroke-width: 1.0;"/></g></svg>