<?xml version="1.0" encoding="UTF-8" standalone="yes"?><svg xmlns="http://www.w3.org/2000/svg" xmlns:xlink="http://www.w3.org/1999/xlink" height="600pt" style="width:1099px;height:600px;" version="1.1" viewBox="0 0 1099 600" width="1099pt"><defs><filter height="300%" id="f1" width="300%" x="-1" y="-1"><feGaussianBlur result="blurOut" stdDeviation="2"/><feColorMatrix in="blurOut" result="blurOut2" type="matrix" values="0 0 0 0 0 0 0 0 0 0 0 0 0 0 0 0 0 0 .4 0"/><feOffset dx="4" dy="4" in="blurOut2" result="blurOut3"/><feBlend in="SourceGraphic" in2="blurOut3" mode="normal"/></filter></defs><g><rect fill="#FFFFFF" filter="url(#f1)" height="569.0" style="stroke: #000000; stroke-width: 2.0;" width="944.0" x="148.0" y="24.0"/><text fill="#000000" font-size="14" font-weight="bold" lengthAdjust="spacingAndGlyphs" textLength="279.0" x="478.5" y="43.0">Система типа &lt;&lt;А&gt;&gt; (Почтовый клиент)</text><ellipse cx="285.0" cy="265.8046875" fill="#FEFECE" filter="url(#f1)" rx="105.0" ry="18.8046875" style="stroke: #A80036; stroke-width: 1.5;"/><text fill="#000000" font-size="14" lengthAdjust="spacingAndGlyphs" textLength="190.0" x="190.0" y="271.0">просмотр списка сообщений</text><ellipse cx="647.0" cy="265.8046875" fill="#FEFECE" filter="url(#f1)" rx="100.0" ry="18.8046875" style="stroke: #A80036; stroke-width: 1.5;"/><text fill="#000000" font-size="14" lengthAdjust="spacingAndGlyphs" textLength="180.0" x="557.0" y="271.0">просмотр спам-сообщений</text><ellipse cx="647.5" cy="192.8046875" fill="#FEFECE" filter="url(#f1)" rx="111.5" ry="18.8046875" style="stroke: #A80036; stroke-width: 1.5;"/><text fill="#000000" font-size="14" lengthAdjust="spacingAndGlyphs" textLength="203.0" x="546.0" y="198.0">просмотр обычных сообщений</text><ellipse cx="285.0" cy="192.8046875" fill="#FEFECE" filter="url(#f1)" rx="101.0" ry="18.8046875" style="stroke: #A80036; stroke-width: 1.5;"/><text fill="#000000" font-size="14" lengthAdjust="spacingAndGlyphs" textLength="182.0" x="194.0" y="198.0">получение входящей почты</text><ellipse cx="285.5" cy="84.8046875" fill="#FEFECE" filter="url(#f1)" rx="100.5" ry="18.8046875" style="stroke: #A80036; stroke-width: 1.5;"/><text fill="#000000" font-size="14" lengthAdjust="spacingAndGlyphs" textLength="181.0" x="195.0" y="90.0">авторизация пользователя</text><ellipse cx="285.5" cy="338.8046875" fill="#FEFECE" filter="url(#f1)" rx="98.5" ry="18.8046875" style="stroke: #A80036; stroke-width: 1.5;"/><text fill="#000000" font-size="14" lengthAdjust="spacingAndGlyphs" textLength="177.0" x="197.0" y="344.0">просмотр журнала работы</text><ellipse cx="285.0" cy="411.8046875" fill="#FEFECE" filter="url(#f1)" rx="111.0" ry="18.8046875" style="stroke: #A80036; stroke-width: 1.5;"/><text fill="#000000" font-size="14" lengthAdjust="spacingAndGlyphs" textLength="202.0" x="184.0" y="417.0">отметить сообщение как спам</text><ellipse cx="285.0" cy="484.8046875" fill="#FEFECE" filter="url(#f1)" rx="121.0" ry="18.8046875" style="stroke: #A80036; stroke-width: 1.5;"/><text fill="#000000" font-size="14" lengthAdjust="spacingAndGlyphs" textLength="222.0" x="174.0" y="490.0">отметить сообщение как не спам</text><ellipse cx="285.0" cy="557.8046875" fill="#FEFECE" filter="url(#f1)" rx="78.0" ry="18.8046875" style="stroke: #A80036; stroke-width: 1.5;"/><text fill="#000000" font-size="14" lengthAdjust="spacingAndGlyphs" textLength="136.0" x="217.0" y="563.0">изменение настроек</text><ellipse cx="647.0" cy="509.109375" fill="#FEFECE" filter="url(#f1)" rx="72.0" ry="27.609375" style="stroke: #A80036; stroke-width: 1.5;"/><text fill="#000000" font-size="14" lengthAdjust="spacingAndGlyphs" textLength="94.0" x="600.0" y="505.5">ввод настроек</text><text fill="#000000" font-size="14" lengthAdjust="spacingAndGlyphs" textLength="124.0" x="585.0" y="523.109375">почтового сервера</text><ellipse cx="982.5" cy="550.109375" fill="#FEFECE" filter="url(#f1)" rx="93.5" ry="27.609375" style="stroke: #A80036; stroke-width: 1.5;"/><text fill="#000000" font-size="14" lengthAdjust="spacingAndGlyphs" textLength="167.0" x="899.0" y="546.5">ввод веб-адреса сервера</text><text fill="#000000" font-size="14" lengthAdjust="spacingAndGlyphs" textLength="108.0" x="928.5" y="564.109375">входящей почты</text><ellipse cx="982.5" cy="461.109375" fill="#FEFECE" filter="url(#f1)" rx="93.5" ry="27.609375" style="stroke: #A80036; stroke-width: 1.5;"/><text fill="#000000" font-size="14" lengthAdjust="spacingAndGlyphs" textLength="167.0" x="899.0" y="457.5">ввод веб-адреса сервера</text><text fill="#000000" font-size="14" lengthAdjust="spacingAndGlyphs" textLength="116.0" x="924.5" y="475.109375">исходящей почты</text><ellipse cx="982.5" cy="379.8046875" fill="#FEFECE" filter="url(#f1)" rx="73.5" ry="18.8046875" style="stroke: #A80036; stroke-width: 1.5;"/><text fill="#000000" font-size="14" lengthAdjust="spacingAndGlyphs" textLength="127.0" x="919.0" y="385.0">ввод номера порта</text><ellipse cx="982.0" cy="289.9140625" fill="#FEFECE" filter="url(#f1)" rx="59.0" ry="36.4140625" style="stroke: #A80036; stroke-width: 1.5;"/><text fill="#000000" font-size="14" lengthAdjust="spacingAndGlyphs" textLength="76.0" x="944.0" y="277.5">выбор типа</text><text fill="#000000" font-size="14" lengthAdjust="spacingAndGlyphs" textLength="98.0" x="933.0" y="295.109375">шифрованного</text><text fill="#000000" font-size="14" lengthAdjust="spacingAndGlyphs" textLength="79.0" x="942.5" y="312.71875">соединения</text><ellipse cx="982.5" cy="192.109375" fill="#FEFECE" filter="url(#f1)" rx="73.5" ry="27.609375" style="stroke: #A80036; stroke-width: 1.5;"/><text fill="#000000" font-size="14" lengthAdjust="spacingAndGlyphs" textLength="127.0" x="919.0" y="188.5">ввод длительности</text><text fill="#000000" font-size="14" lengthAdjust="spacingAndGlyphs" textLength="114.0" x="925.5" y="206.109375">ожидания ответа</text><ellipse cx="647.5" cy="427.8046875" fill="#FEFECE" filter="url(#f1)" rx="122.5" ry="18.8046875" style="stroke: #A80036; stroke-width: 1.5;"/><text fill="#000000" font-size="14" lengthAdjust="spacingAndGlyphs" textLength="225.0" x="535.0" y="433.0">ввод настроек анти-спам сервера</text><ellipse cx="982.5" cy="110.8046875" fill="#FEFECE" filter="url(#f1)" rx="64.5" ry="18.8046875" style="stroke: #A80036; stroke-width: 1.5;"/><text fill="#000000" font-size="14" lengthAdjust="spacingAndGlyphs" textLength="109.0" x="928.0" y="116.0">ввод веб-адреса</text><ellipse cx="647.0" cy="347.109375" fill="#FEFECE" filter="url(#f1)" rx="104.0" ry="27.609375" style="stroke: #A80036; stroke-width: 1.5;"/><text fill="#000000" font-size="14" lengthAdjust="spacingAndGlyphs" textLength="188.0" x="553.0" y="343.5">выбор протокола получения</text><text fill="#000000" font-size="14" lengthAdjust="spacingAndGlyphs" textLength="121.0" x="586.5" y="361.109375">почты IMAP, POP3</text><ellipse cx="53.5" cy="346.0" fill="#FEFECE" filter="url(#f1)" rx="8.0" ry="8.0" style="stroke: #A80036; stroke-width: 2.0;"/><path d="M53.5,354 L53.5,381 M40.5,362 L66.5,362 M53.5,381 L40.5,396 M53.5,381 L66.5,396 " fill="#FEFECE" filter="url(#f1)" style="stroke: #A80036; stroke-width: 2.0;"/><text fill="#000000" font-size="14" lengthAdjust="spacingAndGlyphs" textLength="93.0" x="7.0" y="412.0">Пользователь</text><path d="M93.1741,335.842 C107.056,323.806 123.334,311.549 140,303 C160.92,292.268 185.17,284.5 207.781,278.942 " fill="none" style="stroke: #A80036; stroke-width: 1.0;"/><path d="M410.304,266 C454.942,266 504.587,266 546.836,266 " fill="none" style="stroke: #A80036; stroke-width: 1.0;"/><polygon fill="none" points="410.192,273.0,390.192,266.0,410.192,259.0,410.192,273.0" style="stroke: #A80036; stroke-width: 1.0;"/><path d="M374.935,247.864 C436.599,235.429 517.333,219.148 574.801,207.56 " fill="none" style="stroke: #A80036; stroke-width: 1.0;"/><polygon fill="none" points="376.216,254.747,355.226,251.83800000000002,373.448,241.02300000000002,376.216,254.747" style="stroke: #A80036; stroke-width: 1.0;"/><path d="M66.6391,335.924 C80.1074,302.384 103.9601,255.826 140,229 C156.957,216.378 177.814,208.144 198.368,202.783 " fill="none" style="stroke: #A80036; stroke-width: 1.0;"/><path d="M285,114.228 C285,133.144 285,157.237 285,173.768 " fill="none" style="stroke: #A80036; stroke-width: 1.0; stroke-dasharray: 7.0,7.0;"/><polygon fill="#A80036" points="285.0,104.06,280.5,114.06,285.0,109.06,285.0,114.06,285.0,114.06,285.0,114.06,285.0,109.06,289.5,114.06,285.0,104.06,285.0,104.06" style="stroke: #A80036; stroke-width: 1.0;"/><text fill="#000000" font-size="13" lengthAdjust="spacingAndGlyphs" textLength="57.0" x="285.0" y="143.5">&lt;include&gt;</text><path d="M99.6696,368.557 C130.897,363.577 172.713,356.908 208.721,351.165 " fill="none" style="stroke: #A80036; stroke-width: 1.0;"/><path d="M99.6696,383.242 C129.177,387.821 168.138,393.866 202.72,399.232 " fill="none" style="stroke: #A80036; stroke-width: 1.0;"/><path d="M93.1413,416.222 C107.022,428.262 123.306,440.505 140,449 C159.071,458.705 180.91,465.894 201.751,471.18 " fill="none" style="stroke: #A80036; stroke-width: 1.0;"/><path d="M66.844,416.137 C80.3806,449.425 104.22,495.45 140,522 C160.726,537.379 187.245,546.2416 211.923,551.33 " fill="none" style="stroke: #A80036; stroke-width: 1.0;"/><path d="M353.515,548.7259 C414.901,540.4167 504.885,528.2365 569.011,519.5566 " fill="none" style="stroke: #A80036; stroke-width: 1.0; stroke-dasharray: 7.0,7.0;"/><polygon fill="#A80036" points="579.072,518.1947,568.559,515.0768,574.117,518.8654,569.162,519.5361,569.162,519.5361,569.162,519.5361,574.117,518.8654,569.766,523.9955,579.072,518.1947,579.072,518.1947" style="stroke: #A80036; stroke-width: 1.0;"/><text fill="#000000" font-size="13" lengthAdjust="spacingAndGlyphs" textLength="57.0" x="436.0" y="526.0">&lt;include&gt;</text><path d="M715.601,517.3959 C764.707,523.4059 831.482,531.5784 885.893,538.2377 " fill="none" style="stroke: #A80036; stroke-width: 1.0; stroke-dasharray: 7.0,7.0;"/><polygon fill="#A80036" points="895.902,539.4626,886.523,533.781,890.939,538.8551,885.976,538.2477,885.976,538.2477,885.976,538.2477,890.939,538.8551,885.429,542.7144,895.902,539.4626,895.902,539.4626" style="stroke: #A80036; stroke-width: 1.0;"/><text fill="#000000" font-size="13" lengthAdjust="spacingAndGlyphs" textLength="57.0" x="800.0" y="524.0">&lt;include&gt;</text><path d="M714.389,499.344 C764.213,492.205 832.704,482.392 887.922,474.48 " fill="none" style="stroke: #A80036; stroke-width: 1.0; stroke-dasharray: 7.0,7.0;"/><polygon fill="#A80036" points="898.071,473.026,887.534,469.99,893.121,473.735,888.172,474.44399999999996,888.172,474.44399999999996,888.172,474.44399999999996,893.121,473.735,888.81,478.899,898.071,473.026,898.071,473.026" style="stroke: #A80036; stroke-width: 1.0;"/><text fill="#000000" font-size="13" lengthAdjust="spacingAndGlyphs" textLength="57.0" x="800.0" y="475.0">&lt;include&gt;</text><path d="M699.855,490.651 C721.653,482.939 747.119,473.742 770,465 C822.889,444.794 835.435,438.035 888,417 C902.156,411.335 917.538,405.251 931.681,399.685 " fill="none" style="stroke: #A80036; stroke-width: 1.0; stroke-dasharray: 7.0,7.0;"/><polygon fill="#A80036" points="941.244,395.926,930.29,395.39599999999996,936.59,397.755,931.937,399.584,931.937,399.584,931.937,399.584,936.59,397.755,933.583,403.772,941.244,395.926,941.244,395.926" style="stroke: #A80036; stroke-width: 1.0;"/><text fill="#000000" font-size="13" lengthAdjust="spacingAndGlyphs" textLength="57.0" x="800.0" y="426.0">&lt;include&gt;</text><path d="M710.72,496.257 C731.446,489.648 753.369,479.744 770,465 C792.309,445.221 780.472,427.529 800,405 C831.17,369.04 847.776,369.431 888,344 C901.18,335.667 915.675,327.072 929.252,319.257 " fill="none" style="stroke: #A80036; stroke-width: 1.0; stroke-dasharray: 7.0,7.0;"/><polygon fill="#A80036" points="938.02,314.245,927.105,315.301,933.679,316.726,929.338,319.208,929.338,319.208,929.338,319.208,933.679,316.726,931.572,323.115,938.02,314.245,938.02,314.245" style="stroke: #A80036; stroke-width: 1.0;"/><text fill="#000000" font-size="13" lengthAdjust="spacingAndGlyphs" textLength="57.0" x="800.0" y="357.0">&lt;include&gt;</text><path d="M713.148,498.271 C733.942,491.825 755.289,481.509 770,465 C809.161,421.053 773.076,388.345 800,336 C827.08,283.353 840.636,271.52 888,236 C898.123,228.408 909.766,221.67 921.334,215.889 " fill="none" style="stroke: #A80036; stroke-width: 1.0; stroke-dasharray: 7.0,7.0;"/><polygon fill="#A80036" points="930.563,211.45999999999998,919.601,211.72899999999998,926.056,213.623,921.548,215.786,921.548,215.786,921.548,215.786,926.056,213.623,923.495,219.844,930.563,211.45999999999998,930.563,211.45999999999998" style="stroke: #A80036; stroke-width: 1.0;"/><text fill="#000000" font-size="13" lengthAdjust="spacingAndGlyphs" textLength="57.0" x="800.0" y="256.0">&lt;include&gt;</text><path d="M340.134,544.437 C361.124,538.5409 385.027,530.9259 406,522 C420.101,515.9987 422.344,511.9555 436,505 C474.282,485.501 483.783,480.111 524,465 C540.665,458.739 558.897,452.784 576.099,447.554 " fill="none" style="stroke: #A80036; stroke-width: 1.0; stroke-dasharray: 7.0,7.0;"/><polygon fill="#A80036" points="586.088,444.562,575.217,443.121,581.299,445.997,576.509,447.43100000000004,576.509,447.43100000000004,576.509,447.43100000000004,581.299,445.997,577.8,451.74199999999996,586.088,444.562,586.088,444.562" style="stroke: #A80036; stroke-width: 1.0;"/><text fill="#000000" font-size="13" lengthAdjust="spacingAndGlyphs" textLength="57.0" x="436.0" y="473.0">&lt;include&gt;</text><path d="M735.87,414.904 C748.727,409.588 760.724,402.211 770,392 C817.767,339.416 766.748,297.778 800,235 C825.889,186.122 841.6,177.107 888,147 C899.679,139.422 913.191,133.075 926.266,127.925 " fill="none" style="stroke: #A80036; stroke-width: 1.0; stroke-dasharray: 7.0,7.0;"/><polygon fill="#A80036" points="935.676,124.387,924.732,123.69400000000002,930.996,126.14699999999999,926.316,127.906,926.316,127.906,926.316,127.906,930.996,126.14699999999999,927.9,132.11900000000003,935.676,124.387,935.676,124.387" style="stroke: #A80036; stroke-width: 1.0;"/><text fill="#000000" font-size="13" lengthAdjust="spacingAndGlyphs" textLength="57.0" x="800.0" y="164.0">&lt;include&gt;</text><path d="M353.383,548.6784 C372.155,543.3691 391.351,535.0452 406,522 C431.278,499.49 414.49,478.134 436,452 C466.082,415.45 481.894,413.631 524,392 C538.739,384.428 555.054,377.52 570.854,371.512 " fill="none" style="stroke: #A80036; stroke-width: 1.0; stroke-dasharray: 7.0,7.0;"/><polygon fill="#A80036" points="580.606,367.89,569.665,367.154,575.919,369.631,571.232,371.372,571.232,371.372,571.232,371.372,575.919,369.631,572.799,375.591,580.606,367.89,580.606,367.89" style="stroke: #A80036; stroke-width: 1.0;"/><text fill="#000000" font-size="13" lengthAdjust="spacingAndGlyphs" textLength="57.0" x="436.0" y="402.0">&lt;include&gt;</text></g></svg>