<?xml version="1.0" encoding="UTF-8" standalone="yes"?><svg xmlns="http://www.w3.org/2000/svg" xmlns:xlink="http://www.w3.org/1999/xlink" height="965pt" style="width:749px;height:965px;" version="1.1" viewBox="0 0 749 965" width="749pt"><defs><filter height="300%" id="f1" width="300%" x="-1" y="-1"><feGaussianBlur result="blurOut" stdDeviation="2"/><feColorMatrix in="blurOut" result="blurOut2" type="matrix" values="0 0 0 0 0 0 0 0 0 0 0 0 0 0 0 0 0 0 .4 0"/><feOffset dx="4" dy="4" in="blurOut2" result="blurOut3"/><feBlend in="SourceGraphic" in2="blurOut3" mode="normal"/></filter></defs><g><rect fill="#FFFFFF" filter="url(#f1)" height="934.0" style="stroke: #000000; stroke-width: 2.0;" width="584.0" x="158.0" y="24.0"/><text fill="#000000" font-size="14" font-weight="bold" lengthAdjust="spacingAndGlyphs" textLength="285.0" x="305.5" y="43.0">Система типа &lt;&lt;В&gt;&gt; (Анти-спам сервер)</text><ellipse cx="283.5" cy="297.8046875" fill="#FEFECE" filter="url(#f1)" rx="108.5" ry="18.8046875" style="stroke: #A80036; stroke-width: 1.5;"/><text fill="#000000" font-size="14" lengthAdjust="spacingAndGlyphs" textLength="197.0" x="185.0" y="303.0">аутенфикация и авторизация</text><ellipse cx="283.0" cy="379.109375" fill="#FEFECE" filter="url(#f1)" rx="66.0" ry="27.609375" style="stroke: #A80036; stroke-width: 1.5;"/><text fill="#000000" font-size="14" lengthAdjust="spacingAndGlyphs" textLength="112.0" x="227.0" y="375.5">просмотр списка</text><text fill="#000000" font-size="14" lengthAdjust="spacingAndGlyphs" textLength="60.0" x="253.0" y="393.109375">клиентов</text><ellipse cx="618.0" cy="379.109375" fill="#FEFECE" filter="url(#f1)" rx="72.0" ry="27.609375" style="stroke: #A80036; stroke-width: 1.5;"/><text fill="#000000" font-size="14" lengthAdjust="spacingAndGlyphs" textLength="112.0" x="562.0" y="375.5">просмотр списка</text><text fill="#000000" font-size="14" lengthAdjust="spacingAndGlyphs" textLength="124.0" x="556.0" y="393.109375">активных клиентов</text><ellipse cx="618.0" cy="290.109375" fill="#FEFECE" filter="url(#f1)" rx="108.0" ry="27.609375" style="stroke: #A80036; stroke-width: 1.5;"/><text fill="#000000" font-size="14" lengthAdjust="spacingAndGlyphs" textLength="196.0" x="520.0" y="286.5">просмотр списка неактивных/</text><text fill="#000000" font-size="14" lengthAdjust="spacingAndGlyphs" textLength="179.0" x="528.5" y="304.109375">заблокированных клиентов</text><ellipse cx="283.5" cy="468.109375" fill="#FEFECE" filter="url(#f1)" rx="81.5" ry="27.609375" style="stroke: #A80036; stroke-width: 1.5;"/><text fill="#000000" font-size="14" lengthAdjust="spacingAndGlyphs" textLength="120.0" x="223.5" y="464.5">изменение списка</text><text fill="#000000" font-size="14" lengthAdjust="spacingAndGlyphs" textLength="143.0" x="212.0" y="482.109375">допустимых клиентов</text><ellipse cx="618.5" cy="557.109375" fill="#FEFECE" filter="url(#f1)" rx="56.5" ry="27.609375" style="stroke: #A80036; stroke-width: 1.5;"/><text fill="#000000" font-size="14" lengthAdjust="spacingAndGlyphs" textLength="93.0" x="572.0" y="553.5">блокирование</text><text fill="#000000" font-size="14" lengthAdjust="spacingAndGlyphs" textLength="53.0" x="592.0" y="571.109375">клиента</text><ellipse cx="618.5" cy="468.109375" fill="#FEFECE" filter="url(#f1)" rx="58.5" ry="27.609375" style="stroke: #A80036; stroke-width: 1.5;"/><text fill="#000000" font-size="14" lengthAdjust="spacingAndGlyphs" textLength="97.0" x="570.0" y="464.5">разблокировка</text><text fill="#000000" font-size="14" lengthAdjust="spacingAndGlyphs" textLength="53.0" x="592.0" y="482.109375">клиента</text><ellipse cx="283.0" cy="557.109375" fill="#FEFECE" filter="url(#f1)" rx="80.0" ry="27.609375" style="stroke: #A80036; stroke-width: 1.5;"/><text fill="#000000" font-size="14" lengthAdjust="spacingAndGlyphs" textLength="140.0" x="213.0" y="553.5">просмотр кэш списка</text><text fill="#000000" font-size="14" lengthAdjust="spacingAndGlyphs" textLength="115.0" x="225.5" y="571.109375">спам-адресантов</text><ellipse cx="283.5" cy="217.109375" fill="#FEFECE" filter="url(#f1)" rx="101.5" ry="27.609375" style="stroke: #A80036; stroke-width: 1.5;"/><text fill="#000000" font-size="14" lengthAdjust="spacingAndGlyphs" textLength="183.0" x="192.0" y="213.5">администрирование списка</text><text fill="#000000" font-size="14" lengthAdjust="spacingAndGlyphs" textLength="115.0" x="226.0" y="231.109375">спам-адресантов</text><ellipse cx="283.5" cy="93.109375" fill="#FEFECE" filter="url(#f1)" rx="104.5" ry="27.609375" style="stroke: #A80036; stroke-width: 1.5;"/><text fill="#000000" font-size="14" lengthAdjust="spacingAndGlyphs" textLength="130.0" x="218.5" y="89.5">изменение степени</text><text fill="#000000" font-size="14" lengthAdjust="spacingAndGlyphs" textLength="189.0" x="189.0" y="107.109375">доверия данному адресанту</text><ellipse cx="283.5" cy="654.9140625" fill="#FEFECE" filter="url(#f1)" rx="77.5" ry="36.4140625" style="stroke: #A80036; stroke-width: 1.5;"/><text fill="#000000" font-size="14" lengthAdjust="spacingAndGlyphs" textLength="112.0" x="227.5" y="642.5">просмотр списка</text><text fill="#000000" font-size="14" lengthAdjust="spacingAndGlyphs" textLength="135.0" x="216.0" y="660.109375">взаимодействующих</text><text fill="#000000" font-size="14" lengthAdjust="spacingAndGlyphs" textLength="134.0" x="216.5" y="677.71875">анти-спам серверов</text><ellipse cx="618.0" cy="737.109375" fill="#FEFECE" filter="url(#f1)" rx="69.0" ry="27.609375" style="stroke: #A80036; stroke-width: 1.5;"/><text fill="#000000" font-size="14" lengthAdjust="spacingAndGlyphs" textLength="112.0" x="562.0" y="733.5">просмотр списка</text><text fill="#000000" font-size="14" lengthAdjust="spacingAndGlyphs" textLength="118.0" x="559.0" y="751.109375">активных соседей</text><ellipse cx="618.0" cy="648.109375" fill="#FEFECE" filter="url(#f1)" rx="108.0" ry="27.609375" style="stroke: #A80036; stroke-width: 1.5;"/><text fill="#000000" font-size="14" lengthAdjust="spacingAndGlyphs" textLength="196.0" x="520.0" y="644.5">просмотр списка неактивных/</text><text fill="#000000" font-size="14" lengthAdjust="spacingAndGlyphs" textLength="143.0" x="546.5" y="662.109375">недоступных соседей</text><ellipse cx="283.5" cy="753.109375" fill="#FEFECE" filter="url(#f1)" rx="108.5" ry="27.609375" style="stroke: #A80036; stroke-width: 1.5;"/><text fill="#000000" font-size="14" lengthAdjust="spacingAndGlyphs" textLength="197.0" x="185.0" y="749.5">просмотр статуса сообщений</text><text fill="#000000" font-size="14" lengthAdjust="spacingAndGlyphs" textLength="130.0" x="218.5" y="767.109375">для классификации</text><ellipse cx="283.0" cy="842.109375" fill="#FEFECE" filter="url(#f1)" rx="71.0" ry="27.609375" style="stroke: #A80036; stroke-width: 1.5;"/><text fill="#000000" font-size="14" lengthAdjust="spacingAndGlyphs" textLength="122.0" x="222.0" y="838.5">отмена обработки</text><text fill="#000000" font-size="14" lengthAdjust="spacingAndGlyphs" textLength="74.0" x="246.0" y="856.109375">сообщения</text><ellipse cx="618.0" cy="899.8046875" fill="#FEFECE" filter="url(#f1)" rx="68.0" ry="18.8046875" style="stroke: #A80036; stroke-width: 1.5;"/><text fill="#000000" font-size="14" lengthAdjust="spacingAndGlyphs" textLength="116.0" x="560.0" y="905.0">отправка клиенту</text><ellipse cx="618.5" cy="826.8046875" fill="#FEFECE" filter="url(#f1)" rx="41.5" ry="18.8046875" style="stroke: #A80036; stroke-width: 1.5;"/><text fill="#000000" font-size="14" lengthAdjust="spacingAndGlyphs" textLength="63.0" x="587.0" y="832.0">удаление</text><ellipse cx="283.5" cy="922.8046875" fill="#FEFECE" filter="url(#f1)" rx="98.5" ry="18.8046875" style="stroke: #A80036; stroke-width: 1.5;"/><text fill="#000000" font-size="14" lengthAdjust="spacingAndGlyphs" textLength="177.0" x="195.0" y="928.0">просмотр журнала работы</text><ellipse cx="58.0" cy="527.0" fill="#FEFECE" filter="url(#f1)" rx="8.0" ry="8.0" style="stroke: #A80036; stroke-width: 2.0;"/><path d="M58,535 L58,562 M45,543 L71,543 M58,562 L45,577 M58,562 L71,577 " fill="#FEFECE" filter="url(#f1)" style="stroke: #A80036; stroke-width: 2.0;"/><text fill="#000000" font-size="14" lengthAdjust="spacingAndGlyphs" textLength="104.0" x="6.0" y="593.0">Администратор</text><path d="M63.5931,516.975 C72.7242,466.887 95.6213,381.88 150,334 C162.927,322.618 179.103,314.791 195.677,309.419 " fill="none" style="stroke: #A80036; stroke-width: 1.0;"/><path d="M76.6012,516.822 C92.2893,487.029 117.399,447.493 150,423 C171.195,407.077 198.453,396.736 222.768,390.111 " fill="none" style="stroke: #A80036; stroke-width: 1.0;"/><path d="M369.35,379 C424.095,379 494.089,379 545.859,379 " fill="none" style="stroke: #A80036; stroke-width: 1.0;"/><polygon fill="none" points="369.185,386.0,349.185,379.0,369.185,372.0,369.185,386.0" style="stroke: #A80036; stroke-width: 1.0;"/><path d="M358.166,359.03 C413.63,344.295 488.74,324.341 543.94,309.676 " fill="none" style="stroke: #A80036; stroke-width: 1.0;"/><polygon fill="none" points="359.821,365.83399999999995,338.694,364.20399999999995,356.227,352.303,359.821,365.83399999999995" style="stroke: #A80036; stroke-width: 1.0;"/><path d="M110.47,529.818 C123.253,523.62 136.993,517.304 150,512 C173.309,502.495 199.51,493.484 222.455,486.12 " fill="none" style="stroke: #A80036; stroke-width: 1.0;"/><path d="M346.799,484.95 C407.815,501.16 499.097,525.411 558.601,541.22 " fill="none" style="stroke: #A80036; stroke-width: 1.0; stroke-dasharray: 7.0,7.0;"/><polygon fill="#A80036" points="568.598,543.875,560.088,536.9580000000001,563.765,542.591,558.933,541.308,558.933,541.308,558.933,541.308,563.765,542.591,557.778,545.6569999999999,568.598,543.875,568.598,543.875" style="stroke: #A80036; stroke-width: 1.0;"/><text fill="#000000" font-size="13" lengthAdjust="spacingAndGlyphs" textLength="57.0" x="422.0" y="504.0">&lt;include&gt;</text><path d="M364.522,468 C421.107,468 495.654,468 549.236,468 " fill="none" style="stroke: #A80036; stroke-width: 1.0; stroke-dasharray: 7.0,7.0;"/><polygon fill="#A80036" points="559.325,468.0,549.325,463.5,554.325,468.0,549.325,468.0,549.325,468.0,549.325,468.0,554.325,468.0,549.325,472.5,559.325,468.0,559.325,468.0" style="stroke: #A80036; stroke-width: 1.0;"/><text fill="#000000" font-size="13" lengthAdjust="spacingAndGlyphs" textLength="57.0" x="422.0" y="464.0">&lt;include&gt;</text><path d="M110.185,557 C137.707,557 172.066,557 202.881,557 " fill="none" style="stroke: #A80036; stroke-width: 1.0;"/><path d="M65.7596,516.817 C80.4144,444.775 113.944,297.716 150,261 C163.121,247.638 180.382,238.334 198.104,231.855 " fill="none" style="stroke: #A80036; stroke-width: 1.0;"/><path d="M283,130.565 C283,149.41 283,171.84 283,189.129 " fill="none" style="stroke: #A80036; stroke-width: 1.0; stroke-dasharray: 7.0,7.0;"/><polygon fill="#A80036" points="283.0,120.51999999999998,278.5,130.51999999999998,283.0,125.51999999999998,283.0,130.51999999999998,283.0,130.51999999999998,283.0,130.51999999999998,283.0,125.51999999999998,287.5,130.51999999999998,283.0,120.51999999999998,283.0,120.51999999999998" style="stroke: #A80036; stroke-width: 1.0;"/><text fill="#000000" font-size="13" lengthAdjust="spacingAndGlyphs" textLength="57.0" x="283.0" y="159.5">&lt;include&gt;</text><path d="M110.221,583.393 C123.134,589.683 136.995,596.238 150,602 C173.521,612.421 199.763,623.079 222.68,632.079 " fill="none" style="stroke: #A80036; stroke-width: 1.0;"/><path d="M371.41,676.641 C430.768,691.17 507.326,709.91 559.28,722.627 " fill="none" style="stroke: #A80036; stroke-width: 1.0;"/><polygon fill="none" points="369.363,683.346,351.601,671.7919999999999,372.691,669.748,369.363,683.346" style="stroke: #A80036; stroke-width: 1.0;"/><path d="M380.943,652.953 C421.522,652.106 468.723,651.119 510.275,650.251 " fill="none" style="stroke: #A80036; stroke-width: 1.0;"/><polygon fill="none" points="380.84,659.957,360.698,653.376,380.547,645.96,380.84,659.957" style="stroke: #A80036; stroke-width: 1.0;"/><path d="M72.9169,597.068 C87.6099,631.351 113.217,679.678 150,709 C164.549,720.598 182.279,729.193 199.99,735.545 " fill="none" style="stroke: #A80036; stroke-width: 1.0;"/><path d="M62.7152,597.394 C71.0289,650.582 93.1816,743.692 150,798 C168.109,815.309 193.176,825.812 216.671,832.185 " fill="none" style="stroke: #A80036; stroke-width: 1.0;"/><path d="M347.989,853.252 C406.176,863.326 491.18,878.0431 550.209,888.263 " fill="none" style="stroke: #A80036; stroke-width: 1.0; stroke-dasharray: 7.0,7.0;"/><polygon fill="#A80036" points="560.182,889.9898000000001,551.097,883.8497,555.256,889.1368,550.329,888.2837,550.329,888.2837,550.329,888.2837,555.256,889.1368,549.561,892.7178,560.182,889.9898000000001,560.182,889.9898000000001" style="stroke: #A80036; stroke-width: 1.0;"/><text fill="#000000" font-size="13" lengthAdjust="spacingAndGlyphs" textLength="55.0" x="423.0" y="863.0">&lt;extend&gt;</text><path d="M353.636,838.837 C417.247,835.989 509.257,831.869 566.26,829.317 " fill="none" style="stroke: #A80036; stroke-width: 1.0; stroke-dasharray: 7.0,7.0;"/><polygon fill="#A80036" points="576.481,828.859,566.29,824.811,571.486,829.083,566.491,829.306,566.491,829.306,566.491,829.306,571.486,829.083,566.693,833.802,576.481,828.859,576.481,828.859" style="stroke: #A80036; stroke-width: 1.0;"/><text fill="#000000" font-size="13" lengthAdjust="spacingAndGlyphs" textLength="55.0" x="423.0" y="829.0">&lt;extend&gt;</text><path d="M64.1213,597.02 C76.9237,675.625 108.788,846.098 150,887 C162.819,899.7225 179.645,908.0719 196.999,913.5211 " fill="none" style="stroke: #A80036; stroke-width: 1.0;"/></g></svg>